<svg width="120" height="120" viewBox="0 0 120 120" fill="none" xmlns="http://www.w3.org/2000/svg">
<g clip-path="url(#clip0_10264_6)">
<rect width="120" height="120" fill="#F5D97E"/>
<rect y="30" width="120" height="90" fill="white"/>
<g filter="url(#filter0_d_10264_6)">
<path d="M-9 0H128V30H-9V0Z" fill="black"/>
</g>
<path d="M-9 0H128V30H-9V0Z" fill="url(#paint0_linear_10264_6)"/>
<path fill-rule="evenodd" clip-rule="evenodd" d="M0 59H120V61H0V59ZM0 89H120V91H0V89Z" fill="#C7C5C9"/>
<path d="M11.5 38C12.3284 38 13 37.3284 13 36.5C13 35.6716 12.3284 35 11.5 35C10.6716 35 10 35.6716 10 36.5C10 37.3284 10.6716 38 11.5 38Z" fill="#C2C0C4"/>
<path d="M16.5 38C17.3284 38 18 37.3284 18 36.5C18 35.6716 17.3284 35 16.5 35C15.6716 35 15 35.6716 15 36.5C15 37.3284 15.6716 38 16.5 38Z" fill="#C2C0C4"/>
<path d="M21.5 38C22.3284 38 23 37.3284 23 36.5C23 35.6716 22.3284 35 21.5 35C20.6716 35 20 35.6716 20 36.5C20 37.3284 20.6716 38 21.5 38Z" fill="#C2C0C4"/>
<path d="M26.5 38C27.3284 38 28 37.3284 28 36.5C28 35.6716 27.3284 35 26.5 35C25.6716 35 25 35.6716 25 36.5C25 37.3284 25.6716 38 26.5 38Z" fill="#C2C0C4"/>
<path d="M31.5 38C32.3284 38 33 37.3284 33 36.5C33 35.6716 32.3284 35 31.5 35C30.6716 35 30 35.6716 30 36.5C30 37.3284 30.6716 38 31.5 38Z" fill="#C2C0C4"/>
<path d="M36.5 38C37.3284 38 38 37.3284 38 36.5C38 35.6716 37.3284 35 36.5 35C35.6716 35 35 35.6716 35 36.5C35 37.3284 35.6716 38 36.5 38Z" fill="#C2C0C4"/>
<path d="M41.5 38C42.3284 38 43 37.3284 43 36.5C43 35.6716 42.3284 35 41.5 35C40.6716 35 40 35.6716 40 36.5C40 37.3284 40.6716 38 41.5 38Z" fill="#C2C0C4"/>
<path d="M46.5 38C47.3284 38 48 37.3284 48 36.5C48 35.6716 47.3284 35 46.5 35C45.6716 35 45 35.6716 45 36.5C45 37.3284 45.6716 38 46.5 38Z" fill="#C2C0C4"/>
<path d="M51.5 38C52.3284 38 53 37.3284 53 36.5C53 35.6716 52.3284 35 51.5 35C50.6716 35 50 35.6716 50 36.5C50 37.3284 50.6716 38 51.5 38Z" fill="#C2C0C4"/>
<path d="M56.5 38C57.3284 38 58 37.3284 58 36.5C58 35.6716 57.3284 35 56.5 35C55.6716 35 55 35.6716 55 36.5C55 37.3284 55.6716 38 56.5 38Z" fill="#C2C0C4"/>
<path d="M61.5 38C62.3284 38 63 37.3284 63 36.5C63 35.6716 62.3284 35 61.5 35C60.6716 35 60 35.6716 60 36.5C60 37.3284 60.6716 38 61.5 38Z" fill="#C2C0C4"/>
<path d="M66.5 38C67.3284 38 68 37.3284 68 36.5C68 35.6716 67.3284 35 66.5 35C65.6716 35 65 35.6716 65 36.5C65 37.3284 65.6716 38 66.5 38Z" fill="#C2C0C4"/>
<path d="M71.5 38C72.3284 38 73 37.3284 73 36.5C73 35.6716 72.3284 35 71.5 35C70.6716 35 70 35.6716 70 36.5C70 37.3284 70.6716 38 71.5 38Z" fill="#C2C0C4"/>
<path d="M76.5 38C77.3284 38 78 37.3284 78 36.5C78 35.6716 77.3284 35 76.5 35C75.6716 35 75 35.6716 75 36.5C75 37.3284 75.6716 38 76.5 38Z" fill="#C2C0C4"/>
<path d="M81.5 38C82.3284 38 83 37.3284 83 36.5C83 35.6716 82.3284 35 81.5 35C80.6716 35 80 35.6716 80 36.5C80 37.3284 80.6716 38 81.5 38Z" fill="#C2C0C4"/>
<path d="M86.5 38C87.3284 38 88 37.3284 88 36.5C88 35.6716 87.3284 35 86.5 35C85.6716 35 85 35.6716 85 36.5C85 37.3284 85.6716 38 86.5 38Z" fill="#C2C0C4"/>
<path d="M91.5 38C92.3284 38 93 37.3284 93 36.5C93 35.6716 92.3284 35 91.5 35C90.6716 35 90 35.6716 90 36.5C90 37.3284 90.6716 38 91.5 38Z" fill="#C2C0C4"/>
<path d="M96.5 38C97.3284 38 98 37.3284 98 36.5C98 35.6716 97.3284 35 96.5 35C95.6716 35 95 35.6716 95 36.5C95 37.3284 95.6716 38 96.5 38Z" fill="#C2C0C4"/>
<path d="M101.5 38C102.328 38 103 37.3284 103 36.5C103 35.6716 102.328 35 101.5 35C100.672 35 100 35.6716 100 36.5C100 37.3284 100.672 38 101.5 38Z" fill="#C2C0C4"/>
<path d="M106.5 38C107.328 38 108 37.3284 108 36.5C108 35.6716 107.328 35 106.5 35C105.672 35 105 35.6716 105 36.5C105 37.3284 105.672 38 106.5 38Z" fill="#C2C0C4"/>
<path d="M111.5 38C112.328 38 113 37.3284 113 36.5C113 35.6716 112.328 35 111.5 35C110.672 35 110 35.6716 110 36.5C110 37.3284 110.672 38 111.5 38Z" fill="#C2C0C4"/>
<path d="M116.5 38C117.328 38 118 37.3284 118 36.5C118 35.6716 117.328 35 116.5 35C115.672 35 115 35.6716 115 36.5C115 37.3284 115.672 38 116.5 38Z" fill="#C2C0C4"/>
<path d="M6.5 38C7.32843 38 8 37.3284 8 36.5C8 35.6716 7.32843 35 6.5 35C5.67157 35 5 35.6716 5 36.5C5 37.3284 5.67157 38 6.5 38Z" fill="#C2C0C4"/>
<path d="M1.5 38C2.32843 38 3 37.3284 3 36.5C3 35.6716 2.32843 35 1.5 35C0.671573 35 0 35.6716 0 36.5C0 37.3284 0.671573 38 1.5 38Z" fill="#C2C0C4"/>
</g>
<defs>
<filter id="filter0_d_10264_6" x="-13" y="-2" width="145" height="38" filterUnits="userSpaceOnUse" color-interpolation-filters="sRGB">
<feFlood flood-opacity="0" result="BackgroundImageFix"/>
<feColorMatrix in="SourceAlpha" type="matrix" values="0 0 0 0 0 0 0 0 0 0 0 0 0 0 0 0 0 0 127 0" result="hardAlpha"/>
<feOffset dy="2"/>
<feGaussianBlur stdDeviation="2"/>
<feColorMatrix type="matrix" values="0 0 0 0 0 0 0 0 0 0 0 0 0 0 0 0 0 0 0.5 0"/>
<feBlend mode="normal" in2="BackgroundImageFix" result="effect1_dropShadow_10264_6"/>
<feBlend mode="normal" in="SourceGraphic" in2="effect1_dropShadow_10264_6" result="shape"/>
</filter>
<linearGradient id="paint0_linear_10264_6" x1="6841" y1="0" x2="6841" y2="3000" gradientUnits="userSpaceOnUse">
<stop stop-color="#F4D87E"/>
<stop offset="1" stop-color="#F5C52C"/>
</linearGradient>
<clipPath id="clip0_10264_6">
<rect width="120" height="120" fill="white"/>
</clipPath>
</defs>
</svg>
