<svg fill="none" height="128" viewBox="0 0 128 128" width="128" xmlns="http://www.w3.org/2000/svg" xmlns:xlink="http://www.w3.org/1999/xlink"><clipPath id="a"><path d="m0 0h128v128h-128z"/></clipPath><g clip-path="url(#a)"><path d="m64 128c56-32 56-32 56-112-24 0-32 0-56-16m0 128c-56.00001-32-56-32-56-112 24 0 32 0 56-16" fill="#800000" stroke="#fff" stroke-linecap="round" stroke-linejoin="round"/><path d="m67.25 36.7273-.5398 39.7272h-6.2613l-.5398-39.7272zm-3.6705 55.7045c-1.3314 0-2.4739-.4768-3.4275-1.4304s-1.4304-2.0961-1.4304-3.4275c0-1.3315.4768-2.474 1.4304-3.4276s2.0961-1.4304 3.4275-1.4304c1.3315 0 2.474.4768 3.4276 1.4304s1.4304 2.0961 1.4304 3.4276c0 .8816-.2249 1.6913-.6747 2.4289-.4318.7377-1.0166 1.3315-1.7543 1.7813-.7197.4318-1.5293.6477-2.429.6477z" fill="#fff"/></g></svg>