<svg width="25" height="29" viewBox="0 0 25 29" fill="none" xmlns="http://www.w3.org/2000/svg">
<path fill-rule="evenodd" clip-rule="evenodd" d="M23.2743 6.75935L23.9343 5.13732C23.9343 5.13732 23.0943 4.2362 22.0743 3.21492C21.0543 2.19364 18.8943 2.79439 18.8943 2.79439L16.4343 0H12.1143H7.79426L5.33426 2.79439C5.33426 2.79439 3.17426 2.19364 2.15426 3.21492C1.13426 4.2362 0.294258 5.13732 0.294258 5.13732L0.954258 6.75935L0.114258 9.16235C0.114258 9.16235 2.58476 18.5314 2.87426 19.6755C3.44426 21.9283 3.83426 22.7994 5.45426 23.9408C7.07426 25.0823 10.0143 27.0647 10.4943 27.3651C10.9743 27.6655 11.5743 28.1771 12.1143 28.1771C12.6543 28.1771 13.2543 27.6655 13.7343 27.3651C14.2143 27.0647 17.1543 25.0823 18.7743 23.9408C20.3943 22.7994 20.7843 21.9283 21.3543 19.6755C21.6437 18.5314 24.1143 9.16235 24.1143 9.16235L23.2743 6.75935Z" fill="url(#paint0_linear_2540_760)"/>
<path fill-rule="evenodd" clip-rule="evenodd" d="M18.2045 4.56664C18.2045 4.56664 21.3687 8.39642 21.3687 9.21495C21.3687 10.0335 20.9706 10.2495 20.5704 10.675C20.1702 11.1005 18.4224 12.9589 18.1979 13.1975C17.9735 13.4362 17.5062 13.798 17.781 14.4493C18.0559 15.1006 18.4614 15.9293 18.0105 16.7699C17.5595 17.6104 16.787 18.1715 16.292 18.0787C15.797 17.9859 14.6345 17.3777 14.207 17.0998C13.7795 16.822 12.4246 15.7031 12.4246 15.275C12.4246 14.847 13.8252 14.0784 14.0839 13.9037C14.3427 13.7292 15.5229 13.0533 15.5471 12.788C15.5712 12.5226 15.5621 12.4448 15.2138 11.7893C14.8655 11.1337 14.2382 10.2589 14.3426 9.6768C14.447 9.0948 15.4586 8.79214 16.1805 8.51916C16.9023 8.24624 18.2922 7.73073 18.4658 7.65059C18.6395 7.57039 18.5946 7.49404 18.0686 7.44411C17.5427 7.39419 16.0502 7.19582 15.3773 7.38362C14.7044 7.57141 13.5548 7.85713 13.4616 8.00864C13.3685 8.16015 13.2864 8.16525 13.382 8.68791C13.4776 9.21056 13.97 11.7185 14.0177 12.1639C14.0655 12.6094 14.159 12.9039 13.6793 13.0137C13.1996 13.1235 12.392 13.3142 12.1145 13.3142C11.837 13.3142 11.0294 13.1235 10.5497 13.0137C10.07 12.9039 10.1634 12.6094 10.2113 12.1639C10.2591 11.7185 10.7514 9.21056 10.847 8.68791C10.9426 8.16525 10.8605 8.16015 10.7674 8.00864C10.6743 7.85713 9.52461 7.57141 8.85171 7.38362C8.17881 7.19582 6.68631 7.39419 6.16035 7.44411C5.63439 7.49404 5.58951 7.57039 5.76315 7.65059C5.93679 7.73073 7.32669 8.24624 8.04849 8.51916C8.77035 8.79214 9.78201 9.0948 9.88641 9.6768C9.99081 10.2589 9.36351 11.1337 9.01527 11.7893C8.66697 12.4448 8.65773 12.5226 8.68191 12.788C8.70603 13.0533 9.88629 13.7292 10.1451 13.9037C10.4039 14.0784 11.8044 14.847 11.8044 15.275C11.8044 15.7031 10.4495 16.822 10.022 17.0998C9.59451 17.3777 8.43201 17.9859 7.93701 18.0787C7.44201 18.1715 6.66951 17.6104 6.21855 16.7699C5.76765 15.9293 6.17313 15.1006 6.44793 14.4493C6.72279 13.798 6.25557 13.4362 6.03105 13.1975C5.80665 12.9589 4.05873 11.1005 3.65853 10.675C3.25833 10.2495 2.86035 10.0335 2.86035 9.21495C2.86035 8.39642 6.02451 4.56664 6.02451 4.56664C6.02451 4.56664 8.69451 5.07727 9.05451 5.07727C9.41451 5.07727 10.1945 4.7769 10.9145 4.5366C11.6345 4.2963 12.1145 4.29456 12.1145 4.29456C12.1145 4.29456 12.5945 4.2963 13.3145 4.5366C14.0345 4.7769 14.8145 5.07727 15.1745 5.07727C15.5345 5.07727 18.2045 4.56664 18.2045 4.56664ZM15.8325 19.2163C16.0283 19.3391 15.9088 19.5706 15.7305 19.6969C15.552 19.8232 13.1544 21.6821 12.9217 21.8876C12.6889 22.0931 12.347 22.4325 12.1145 22.4325C11.882 22.4325 11.54 22.0931 11.3073 21.8876C11.0746 21.6821 8.67698 19.8232 8.49854 19.6969C8.3201 19.5706 8.2007 19.3391 8.39654 19.2163C8.59244 19.0936 9.20522 18.7838 10.0508 18.3457C10.8963 17.9076 11.95 17.5351 12.1145 17.5351C12.279 17.5351 13.3327 17.9076 14.1783 18.3457C15.0238 18.7838 15.6366 19.0936 15.8325 19.2163Z" fill="white"/>
<mask id="mask0_2540_760" style="mask-type:alpha" maskUnits="userSpaceOnUse" x="2" y="0" width="21" height="6">
<path d="M18.8943 2.79439L16.4343 0H12.1143H7.7943L5.3343 2.79439C5.3343 2.79439 3.1743 2.19364 2.1543 3.21492C2.1543 3.21492 5.0343 2.95461 6.0243 4.56661C6.0243 4.56661 8.6943 5.07725 9.0543 5.07725C9.4143 5.07725 10.1943 4.77687 10.9143 4.53657C11.6343 4.29627 12.1143 4.29453 12.1143 4.29453C12.1143 4.29453 12.5943 4.29627 13.3143 4.53657C14.0343 4.77687 14.8143 5.07725 15.1743 5.07725C15.5343 5.07725 18.2043 4.56661 18.2043 4.56661C19.1943 2.95461 22.0743 3.21492 22.0743 3.21492C21.0543 2.19364 18.8943 2.79439 18.8943 2.79439Z" fill="white"/>
</mask>
<g mask="url(#mask0_2540_760)">
<path d="M18.8943 2.79439L16.4343 0H12.1143H7.7943L5.3343 2.79439C5.3343 2.79439 3.1743 2.19364 2.1543 3.21492C2.1543 3.21492 5.0343 2.95461 6.0243 4.56661C6.0243 4.56661 8.6943 5.07725 9.0543 5.07725C9.4143 5.07725 10.1943 4.77687 10.9143 4.53657C11.6343 4.29627 12.1143 4.29453 12.1143 4.29453C12.1143 4.29453 12.5943 4.29627 13.3143 4.53657C14.0343 4.77687 14.8143 5.07725 15.1743 5.07725C15.5343 5.07725 18.2043 4.56661 18.2043 4.56661C19.1943 2.95461 22.0743 3.21492 22.0743 3.21492C21.0543 2.19364 18.8943 2.79439 18.8943 2.79439Z" fill="url(#paint1_linear_2540_760)"/>
</g>
<defs>
<linearGradient id="paint0_linear_2540_760" x1="0.114258" y1="14.2874" x2="24.1143" y2="14.2874" gradientUnits="userSpaceOnUse">
<stop stop-color="#FF5500"/>
<stop offset="0.409877" stop-color="#FF5500"/>
<stop offset="0.581981" stop-color="#FF2000"/>
<stop offset="1" stop-color="#FF2000"/>
</linearGradient>
<linearGradient id="paint1_linear_2540_760" x1="2.58227" y1="2.57444" x2="22.0743" y2="2.57444" gradientUnits="userSpaceOnUse">
<stop stop-color="#FF452A"/>
<stop offset="1" stop-color="#FF2000"/>
</linearGradient>
</defs>
</svg>
